<svg width="1510" height="520" viewBox="0 0 1510 520" fill="none" xmlns="http://www.w3.org/2000/svg">
<g filter="url(#filter0_di_11_10)">
<path d="M195.668 225.646C195.668 186.5 184.835 112.479 177.668 78.146C182.868 74.946 358.502 125.146 445.668 150.646C530.868 169.046 518.168 248.646 503.668 309.146C497.668 352.646 472.668 412.646 553.168 421.146C430.768 466.746 390.502 429.813 385.668 405.646C366.668 338.146 489.668 324.146 503.668 309.146C441.168 220.146 134.771 476.599 157.168 417.146C184.668 344.146 195.668 272.146 195.668 225.646Z" fill="#0A0A0A"/>
<path d="M178.674 71C179.566 71.0035 180.527 71.0925 181.44 71.206C183.303 71.4377 185.708 71.8675 188.501 72.4375C194.126 73.5854 201.874 75.4137 211.182 77.748C229.824 82.4237 255.055 89.2139 282.797 96.8867C338.197 112.209 403.798 131.105 447.4 143.859C469.649 148.705 486.094 157.672 497.762 169.816C509.467 182 515.908 196.904 518.933 212.8C524.889 244.106 517.756 280.352 510.551 310.459C509.778 315.978 508.725 321.704 507.648 327.399C506.538 333.27 505.406 339.1 504.46 344.925C502.557 356.636 501.535 367.621 502.911 377.284C504.259 386.747 507.863 394.68 515.146 400.829C522.581 407.107 534.583 412.145 553.903 414.185C557.134 414.526 559.706 417.045 560.113 420.269C560.52 423.492 558.657 426.572 555.612 427.706C493.759 450.749 451.531 453.39 423.618 446.346C395.67 439.292 382.007 422.399 378.862 407.296C373.551 388.148 378.349 372.36 388.715 359.755C398.807 347.483 413.996 338.398 429.376 331.346C444.84 324.255 461.326 318.865 474.405 314.431C481.036 312.183 486.691 310.215 491.1 308.372C491.796 308.081 492.434 307.802 493.021 307.537C486.957 301.953 479 298.746 469.129 297.628C456.106 296.153 440.103 298.384 421.931 303.566C385.608 313.924 342.756 335.424 301.994 358.178C281.671 369.522 261.999 381.102 244.029 391.668C226.107 402.206 209.806 411.779 196.389 419.001C189.676 422.614 183.586 425.692 178.306 428.03C173.121 430.326 168.325 432.086 164.308 432.812C162.304 433.175 160.055 433.365 157.851 432.977C155.538 432.569 152.893 431.434 151.028 428.881C149.231 426.42 148.893 423.635 149.026 421.397C149.159 419.167 149.786 416.884 150.617 414.679C177.839 342.418 188.668 271.252 188.668 225.646C188.668 187.198 177.941 113.714 170.815 79.5762C170.213 76.6876 171.486 73.7312 173.999 72.1846C175.279 71.3967 176.509 71.1845 177.01 71.1103C177.646 71.016 178.231 70.9983 178.674 71ZM195.66 227.845C195.32 274.397 184.239 345.287 157.168 417.146L156.921 417.828C137.16 474.601 441.412 220.494 503.668 309.146C489.666 324.146 366.668 338.147 385.668 405.646C390.502 429.813 430.769 466.746 553.168 421.146C472.669 412.646 497.668 352.646 503.668 309.146C518.168 248.646 530.868 169.046 445.668 150.646C358.503 125.147 182.873 74.9473 177.668 78.1455C184.835 112.479 195.668 186.5 195.668 225.646L195.66 227.845Z" fill="#C0C0C0"/>
</g>
<g filter="url(#filter1_dd_11_10)">
<path d="M673.046 251.06C676.446 252.137 679.11 253.95 681.036 256.5C682.963 258.993 683.926 262.082 683.926 265.765C683.926 270.978 681.886 275.002 677.806 277.835C673.783 280.612 667.89 282 660.126 282H629.356V222.5H658.426C665.68 222.5 671.233 223.888 675.086 226.665C678.996 229.442 680.951 233.21 680.951 237.97C680.951 240.86 680.243 243.438 678.826 245.705C677.466 247.972 675.54 249.757 673.046 251.06ZM643.041 232.87V246.895H656.726C660.126 246.895 662.705 246.3 664.461 245.11C666.218 243.92 667.096 242.163 667.096 239.84C667.096 237.517 666.218 235.788 664.461 234.655C662.705 233.465 660.126 232.87 656.726 232.87H643.041ZM659.106 271.63C662.733 271.63 665.453 271.035 667.266 269.845C669.136 268.655 670.071 266.813 670.071 264.32C670.071 259.39 666.416 256.925 659.106 256.925H643.041V271.63H659.106Z" fill="#0A0A0A"/>
<path d="M696.051 222.5H709.821V270.78H739.656V282H696.051V222.5Z" fill="#0A0A0A"/>
<path d="M775.825 221.48C781.322 221.48 786.11 222.557 790.19 224.71C794.27 226.863 797.443 230.037 799.71 234.23C801.977 238.423 803.11 243.495 803.11 249.445V282H789.34V267.72H762.14V282H748.54V249.445C748.54 243.495 749.673 238.423 751.94 234.23C754.207 230.037 757.38 226.863 761.46 224.71C765.54 222.557 770.328 221.48 775.825 221.48ZM789.34 256.67V248.17C789.34 243.24 788.122 239.528 785.685 237.035C783.248 234.485 779.933 233.21 775.74 233.21C771.49 233.21 768.147 234.485 765.71 237.035C763.33 239.528 762.14 243.24 762.14 248.17V256.67H789.34Z" fill="#0A0A0A"/>
<path d="M846.877 283.02C840.813 283.02 835.317 281.717 830.387 279.11C825.513 276.447 821.66 272.792 818.827 268.145C816.05 263.442 814.662 258.143 814.662 252.25C814.662 246.357 816.05 241.087 818.827 236.44C821.66 231.737 825.513 228.082 830.387 225.475C835.317 222.812 840.842 221.48 846.962 221.48C852.118 221.48 856.765 222.387 860.902 224.2C865.095 226.013 868.608 228.62 871.442 232.02L862.602 240.18C858.578 235.533 853.592 233.21 847.642 233.21C843.958 233.21 840.672 234.032 837.782 235.675C834.892 237.262 832.625 239.5 830.982 242.39C829.395 245.28 828.602 248.567 828.602 252.25C828.602 255.933 829.395 259.22 830.982 262.11C832.625 265 834.892 267.267 837.782 268.91C840.672 270.497 843.958 271.29 847.642 271.29C853.592 271.29 858.578 268.938 862.602 264.235L871.442 272.395C868.608 275.852 865.095 278.487 860.902 280.3C856.708 282.113 852.033 283.02 846.877 283.02Z" fill="#0A0A0A"/>
<path d="M904.115 258.625L896.125 266.955V282H882.44V222.5H896.125V250.295L922.475 222.5H937.775L913.125 249.02L939.22 282H923.155L904.115 258.625Z" fill="#0A0A0A"/>
<path d="M1000.54 233.21C995.783 233.21 992.184 234.258 989.748 236.355C987.311 238.395 986.093 241.483 986.093 245.62V249.275H1010.57V260.325H986.093V282H972.323V245.705C972.323 238.055 974.703 232.105 979.463 227.855C984.279 223.605 990.994 221.48 999.608 221.48C1003.01 221.48 1006.21 221.848 1009.21 222.585C1012.22 223.265 1014.82 224.285 1017.03 225.645L1012.78 236.525C1009.38 234.315 1005.3 233.21 1000.54 233.21Z" fill="#0A0A0A"/>
<path d="M1026.83 222.5H1040.6V270.78H1070.43V282H1026.83V222.5Z" fill="#0A0A0A"/>
<path d="M1106.6 221.48C1112.1 221.48 1116.89 222.557 1120.97 224.71C1125.05 226.863 1128.22 230.037 1130.49 234.23C1132.75 238.423 1133.89 243.495 1133.89 249.445V282H1120.12V267.72H1092.92V282H1079.32V249.445C1079.32 243.495 1080.45 238.423 1082.72 234.23C1084.98 230.037 1088.16 226.863 1092.24 224.71C1096.32 222.557 1101.1 221.48 1106.6 221.48ZM1120.12 256.67V248.17C1120.12 243.24 1118.9 239.528 1116.46 237.035C1114.02 234.485 1110.71 233.21 1106.52 233.21C1102.27 233.21 1098.92 234.485 1096.49 237.035C1094.11 239.528 1092.92 243.24 1092.92 248.17V256.67H1120.12Z" fill="#0A0A0A"/>
<path d="M1189.38 251.315H1201.96V282H1191.59V278.43C1187.46 281.49 1182.13 283.02 1175.61 283.02C1170.12 283.02 1165.07 281.83 1160.48 279.45C1155.89 277.07 1152.24 273.613 1149.52 269.08C1146.8 264.49 1145.44 259.05 1145.44 252.76C1145.44 246.697 1146.83 241.313 1149.6 236.61C1152.44 231.85 1156.35 228.138 1161.33 225.475C1166.32 222.812 1171.93 221.48 1178.16 221.48C1183.38 221.48 1188.11 222.358 1192.36 224.115C1196.61 225.872 1200.18 228.422 1203.07 231.765L1194.23 239.925C1189.98 235.448 1184.85 233.21 1178.84 233.21C1175.05 233.21 1171.67 234.032 1168.73 235.675C1165.78 237.262 1163.49 239.528 1161.84 242.475C1160.2 245.422 1159.38 248.822 1159.38 252.675C1159.38 256.698 1160.17 260.127 1161.76 262.96C1163.4 265.793 1165.58 267.947 1168.3 269.42C1171.02 270.837 1174 271.545 1177.23 271.545C1182.04 271.545 1186.1 270.185 1189.38 267.465V251.315Z" fill="#0A0A0A"/>
</g>
<g filter="url(#filter2_dd_11_10)">
<path d="M817.256 290.2H827.624V326.552H850.088V335H817.256V290.2ZM885.641 289.432C889.779 289.432 893.385 290.243 896.457 291.864C899.529 293.485 901.918 295.875 903.625 299.032C905.331 302.189 906.185 306.008 906.185 310.488V335H895.817V324.248H875.337V335H865.097V310.488C865.097 306.008 865.95 302.189 867.657 299.032C869.363 295.875 871.753 293.485 874.825 291.864C877.897 290.243 881.502 289.432 885.641 289.432ZM895.817 315.928V309.528C895.817 305.816 894.899 303.021 893.065 301.144C891.23 299.224 888.734 298.264 885.577 298.264C882.377 298.264 879.859 299.224 878.025 301.144C876.233 303.021 875.337 305.816 875.337 309.528V315.928H895.817ZM958.914 311.704C961.474 312.515 963.48 313.88 964.93 315.8C966.381 317.677 967.106 320.003 967.106 322.776C967.106 326.701 965.57 329.731 962.498 331.864C959.469 333.955 955.032 335 949.186 335H926.018V290.2H947.906C953.368 290.2 957.549 291.245 960.45 293.336C963.394 295.427 964.866 298.264 964.866 301.848C964.866 304.024 964.333 305.965 963.266 307.672C962.242 309.379 960.792 310.723 958.914 311.704ZM936.322 298.008V308.568H946.626C949.186 308.568 951.128 308.12 952.45 307.224C953.773 306.328 954.434 305.005 954.434 303.256C954.434 301.507 953.773 300.205 952.45 299.352C951.128 298.456 949.186 298.008 946.626 298.008H936.322ZM948.418 327.192C951.149 327.192 953.197 326.744 954.562 325.848C955.97 324.952 956.674 323.565 956.674 321.688C956.674 317.976 953.922 316.12 948.418 316.12H936.322V327.192H948.418ZM999.276 335.768C995.734 335.768 992.3 335.299 988.972 334.36C985.686 333.379 983.041 332.12 981.036 330.584L984.556 322.776C986.476 324.184 988.758 325.315 991.404 326.168C994.049 327.021 996.694 327.448 999.34 327.448C1002.28 327.448 1004.46 327.021 1005.87 326.168C1007.28 325.272 1007.98 324.099 1007.98 322.648C1007.98 321.581 1007.55 320.707 1006.7 320.024C1005.89 319.299 1004.82 318.723 1003.5 318.296C1002.22 317.869 1000.47 317.4 998.252 316.888C994.838 316.077 992.044 315.267 989.868 314.456C987.692 313.645 985.814 312.344 984.236 310.552C982.7 308.76 981.932 306.371 981.932 303.384C981.932 300.781 982.636 298.435 984.044 296.344C985.452 294.211 987.564 292.525 990.38 291.288C993.238 290.051 996.716 289.432 1000.81 289.432C1003.67 289.432 1006.47 289.773 1009.2 290.456C1011.93 291.139 1014.32 292.12 1016.36 293.4L1013.16 301.272C1009.03 298.925 1004.89 297.752 1000.75 297.752C997.846 297.752 995.692 298.221 994.284 299.16C992.918 300.099 992.236 301.336 992.236 302.872C992.236 304.408 993.025 305.56 994.604 306.328C996.225 307.053 998.678 307.779 1001.96 308.504C1005.38 309.315 1008.17 310.125 1010.35 310.936C1012.52 311.747 1014.38 313.027 1015.92 314.776C1017.49 316.525 1018.28 318.893 1018.28 321.88C1018.28 324.44 1017.56 326.787 1016.11 328.92C1014.7 331.011 1012.57 332.675 1009.71 333.912C1006.85 335.149 1003.37 335.768 999.276 335.768Z" fill="#737373"/>
</g>
<defs>
<filter id="filter0_di_11_10" x="129" y="50.9999" width="451.168" height="418.785" filterUnits="userSpaceOnUse" color-interpolation-filters="sRGB">
<feFlood flood-opacity="0" result="BackgroundImageFix"/>
<feColorMatrix in="SourceAlpha" type="matrix" values="0 0 0 0 0 0 0 0 0 0 0 0 0 0 0 0 0 0 127 0" result="hardAlpha"/>
<feOffset/>
<feGaussianBlur stdDeviation="10"/>
<feComposite in2="hardAlpha" operator="out"/>
<feColorMatrix type="matrix" values="0 0 0 0 0.898039 0 0 0 0 0.898039 0 0 0 0 0.898039 0 0 0 0.4 0"/>
<feBlend mode="normal" in2="BackgroundImageFix" result="effect1_dropShadow_11_10"/>
<feBlend mode="normal" in="SourceGraphic" in2="effect1_dropShadow_11_10" result="shape"/>
<feColorMatrix in="SourceAlpha" type="matrix" values="0 0 0 0 0 0 0 0 0 0 0 0 0 0 0 0 0 0 127 0" result="hardAlpha"/>
<feOffset/>
<feGaussianBlur stdDeviation="6"/>
<feComposite in2="hardAlpha" operator="arithmetic" k2="-1" k3="1"/>
<feColorMatrix type="matrix" values="0 0 0 0 1 0 0 0 0 1 0 0 0 0 1 0 0 0 0.25 0"/>
<feBlend mode="normal" in2="shape" result="effect2_innerShadow_11_10"/>
</filter>
<filter id="filter1_dd_11_10" x="609.356" y="201.48" width="613.711" height="101.54" filterUnits="userSpaceOnUse" color-interpolation-filters="sRGB">
<feFlood flood-opacity="0" result="BackgroundImageFix"/>
<feColorMatrix in="SourceAlpha" type="matrix" values="0 0 0 0 0 0 0 0 0 0 0 0 0 0 0 0 0 0 127 0" result="hardAlpha"/>
<feOffset/>
<feGaussianBlur stdDeviation="7.5"/>
<feComposite in2="hardAlpha" operator="out"/>
<feColorMatrix type="matrix" values="0 0 0 0 0.752941 0 0 0 0 0.752941 0 0 0 0 0.752941 0 0 0 0.6 0"/>
<feBlend mode="normal" in2="BackgroundImageFix" result="effect1_dropShadow_11_10"/>
<feColorMatrix in="SourceAlpha" type="matrix" values="0 0 0 0 0 0 0 0 0 0 0 0 0 0 0 0 0 0 127 0" result="hardAlpha"/>
<feOffset/>
<feGaussianBlur stdDeviation="10"/>
<feComposite in2="hardAlpha" operator="out"/>
<feColorMatrix type="matrix" values="0 0 0 0 0 0 0 0 0 0 0 0 0 0 0 0 0 0 0.4 0"/>
<feBlend mode="normal" in2="effect1_dropShadow_11_10" result="effect2_dropShadow_11_10"/>
<feBlend mode="normal" in="SourceGraphic" in2="effect2_dropShadow_11_10" result="shape"/>
</filter>
<filter id="filter2_dd_11_10" x="787.256" y="259.432" width="261.028" height="106.336" filterUnits="userSpaceOnUse" color-interpolation-filters="sRGB">
<feFlood flood-opacity="0" result="BackgroundImageFix"/>
<feColorMatrix in="SourceAlpha" type="matrix" values="0 0 0 0 0 0 0 0 0 0 0 0 0 0 0 0 0 0 127 0" result="hardAlpha"/>
<feOffset/>
<feGaussianBlur stdDeviation="7.5"/>
<feComposite in2="hardAlpha" operator="out"/>
<feColorMatrix type="matrix" values="0 0 0 0 0.45098 0 0 0 0 0.45098 0 0 0 0 0.45098 0 0 0 0.6 0"/>
<feBlend mode="normal" in2="BackgroundImageFix" result="effect1_dropShadow_11_10"/>
<feColorMatrix in="SourceAlpha" type="matrix" values="0 0 0 0 0 0 0 0 0 0 0 0 0 0 0 0 0 0 127 0" result="hardAlpha"/>
<feOffset/>
<feGaussianBlur stdDeviation="15"/>
<feComposite in2="hardAlpha" operator="out"/>
<feColorMatrix type="matrix" values="0 0 0 0 0 0 0 0 0 0 0 0 0 0 0 0 0 0 0.4 0"/>
<feBlend mode="normal" in2="effect1_dropShadow_11_10" result="effect2_dropShadow_11_10"/>
<feBlend mode="normal" in="SourceGraphic" in2="effect2_dropShadow_11_10" result="shape"/>
</filter>
</defs>
</svg>
