<svg width="1510" height="520" viewBox="0 0 1510 520" fill="none" xmlns="http://www.w3.org/2000/svg">
<g filter="url(#filter0_ddi_34_7)">
<path d="M195.668 225.646C195.668 186.5 184.835 112.479 177.668 78.146C182.868 74.946 358.502 125.146 445.668 150.646C530.868 169.046 518.168 248.646 503.668 309.146C497.668 352.646 472.668 412.646 553.168 421.146C430.768 466.746 390.502 429.813 385.668 405.646C366.668 338.146 489.668 324.146 503.668 309.146C441.168 220.146 134.771 476.599 157.168 417.146C184.668 344.146 195.668 272.146 195.668 225.646Z" fill="#0A0A0A"/>
<path d="M178.674 71C179.566 71.0035 180.527 71.0925 181.44 71.206C183.303 71.4377 185.708 71.8675 188.501 72.4375C194.126 73.5854 201.874 75.4137 211.182 77.748C229.824 82.4237 255.055 89.2139 282.797 96.8867C338.197 112.209 403.798 131.105 447.4 143.859C469.649 148.705 486.094 157.672 497.762 169.816C509.467 182 515.908 196.904 518.933 212.8C524.889 244.106 517.756 280.352 510.551 310.459C509.778 315.978 508.725 321.704 507.648 327.399C506.538 333.27 505.406 339.1 504.46 344.925C502.557 356.636 501.535 367.621 502.911 377.284C504.259 386.747 507.863 394.68 515.146 400.829C522.581 407.107 534.583 412.145 553.903 414.185C557.134 414.526 559.706 417.045 560.113 420.269C560.52 423.492 558.657 426.572 555.612 427.706C493.759 450.749 451.531 453.39 423.618 446.346C395.67 439.292 382.007 422.399 378.862 407.296C373.551 388.148 378.349 372.36 388.715 359.755C398.807 347.483 413.996 338.398 429.376 331.346C444.84 324.255 461.326 318.865 474.405 314.431C481.036 312.183 486.691 310.215 491.1 308.372C491.796 308.081 492.434 307.802 493.021 307.537C486.957 301.953 479 298.746 469.129 297.628C456.106 296.153 440.103 298.384 421.931 303.566C385.608 313.924 342.756 335.424 301.994 358.178C281.671 369.522 261.999 381.102 244.029 391.668C226.107 402.206 209.806 411.779 196.389 419.001C189.676 422.614 183.586 425.692 178.306 428.03C173.121 430.326 168.325 432.086 164.308 432.812C162.304 433.175 160.055 433.365 157.851 432.977C155.538 432.569 152.893 431.434 151.028 428.881C149.231 426.42 148.893 423.635 149.026 421.397C149.159 419.167 149.786 416.884 150.617 414.679C177.839 342.418 188.668 271.252 188.668 225.646C188.668 187.198 177.941 113.714 170.815 79.5762C170.213 76.6876 171.486 73.7312 173.999 72.1846C175.279 71.3967 176.509 71.1845 177.01 71.1103C177.646 71.016 178.231 70.9983 178.674 71ZM195.66 227.845C195.32 274.397 184.239 345.287 157.168 417.146L156.921 417.828C137.16 474.601 441.412 220.494 503.668 309.146C489.666 324.146 366.668 338.147 385.668 405.646C390.502 429.813 430.769 466.746 553.168 421.146C472.669 412.646 497.668 352.646 503.668 309.146C518.168 248.646 530.868 169.046 445.668 150.646C358.503 125.147 182.873 74.9473 177.668 78.1455C184.835 112.479 195.668 186.5 195.668 225.646L195.66 227.845Z" fill="#C0C0C0"/>
</g>
<g filter="url(#filter1_dd_34_7)">
<path d="M673.046 251.06C676.446 252.137 679.11 253.95 681.036 256.5C682.963 258.993 683.926 262.082 683.926 265.765C683.926 270.978 681.886 275.002 677.806 277.835C673.783 280.612 667.89 282 660.126 282H629.356V222.5H658.426C665.68 222.5 671.233 223.888 675.086 226.665C678.996 229.442 680.951 233.21 680.951 237.97C680.951 240.86 680.243 243.438 678.826 245.705C677.466 247.972 675.54 249.757 673.046 251.06ZM643.041 232.87V246.895H656.726C660.126 246.895 662.705 246.3 664.461 245.11C666.218 243.92 667.096 242.163 667.096 239.84C667.096 237.517 666.218 235.788 664.461 234.655C662.705 233.465 660.126 232.87 656.726 232.87H643.041ZM659.106 271.63C662.733 271.63 665.453 271.035 667.266 269.845C669.136 268.655 670.071 266.813 670.071 264.32C670.071 259.39 666.416 256.925 659.106 256.925H643.041V271.63H659.106ZM696.051 222.5H709.821V270.78H739.656V282H696.051V222.5ZM775.825 221.48C781.322 221.48 786.11 222.557 790.19 224.71C794.27 226.863 797.443 230.037 799.71 234.23C801.977 238.423 803.11 243.495 803.11 249.445V282H789.34V267.72H762.14V282H748.54V249.445C748.54 243.495 749.673 238.423 751.94 234.23C754.207 230.037 757.38 226.863 761.46 224.71C765.54 222.557 770.328 221.48 775.825 221.48ZM789.34 256.67V248.17C789.34 243.24 788.122 239.528 785.685 237.035C783.248 234.485 779.933 233.21 775.74 233.21C771.49 233.21 768.147 234.485 765.71 237.035C763.33 239.528 762.14 243.24 762.14 248.17V256.67H789.34ZM846.876 283.02C840.813 283.02 835.316 281.717 830.386 279.11C825.513 276.447 821.66 272.792 818.826 268.145C816.05 263.442 814.661 258.143 814.661 252.25C814.661 246.357 816.05 241.087 818.826 236.44C821.66 231.737 825.513 228.082 830.386 225.475C835.316 222.812 840.841 221.48 846.961 221.48C852.118 221.48 856.765 222.387 860.901 224.2C865.095 226.013 868.608 228.62 871.441 232.02L862.602 240.18C858.578 235.533 853.591 233.21 847.641 233.21C843.958 233.21 840.671 234.032 837.781 235.675C834.891 237.262 832.625 239.5 830.981 242.39C829.395 245.28 828.601 248.567 828.601 252.25C828.601 255.933 829.395 259.22 830.981 262.11C832.625 265 834.891 267.267 837.781 268.91C840.671 270.497 843.958 271.29 847.641 271.29C853.591 271.29 858.578 268.938 862.602 264.235L871.441 272.395C868.608 275.852 865.095 278.487 860.901 280.3C856.708 282.113 852.033 283.02 846.876 283.02ZM904.115 258.625L896.125 266.955V282H882.44V222.5H896.125V250.295L922.475 222.5H937.775L913.125 249.02L939.22 282H923.155L904.115 258.625ZM1000.54 233.21C995.783 233.21 992.184 234.258 989.748 236.355C987.311 238.395 986.093 241.483 986.093 245.62V249.275H1010.57V260.325H986.093V282H972.323V245.705C972.323 238.055 974.703 232.105 979.463 227.855C984.279 223.605 990.994 221.48 999.608 221.48C1003.01 221.48 1006.21 221.848 1009.21 222.585C1012.22 223.265 1014.82 224.285 1017.03 225.645L1012.78 236.525C1009.38 234.315 1005.3 233.21 1000.54 233.21ZM1026.83 222.5H1040.6V270.78H1070.43V282H1026.83V222.5ZM1106.6 221.48C1112.1 221.48 1116.89 222.557 1120.97 224.71C1125.05 226.863 1128.22 230.037 1130.49 234.23C1132.75 238.423 1133.89 243.495 1133.89 249.445V282H1120.12V267.72H1092.92V282H1079.32V249.445C1079.32 243.495 1080.45 238.423 1082.72 234.23C1084.98 230.037 1088.16 226.863 1092.24 224.71C1096.32 222.557 1101.1 221.48 1106.6 221.48ZM1120.12 256.67V248.17C1120.12 243.24 1118.9 239.528 1116.46 237.035C1114.02 234.485 1110.71 233.21 1106.52 233.21C1102.27 233.21 1098.92 234.485 1096.49 237.035C1094.11 239.528 1092.92 243.24 1092.92 248.17V256.67H1120.12ZM1189.38 251.315H1201.96V282H1191.59V278.43C1187.46 281.49 1182.13 283.02 1175.61 283.02C1170.12 283.02 1165.07 281.83 1160.48 279.45C1155.89 277.07 1152.24 273.613 1149.52 269.08C1146.8 264.49 1145.44 259.05 1145.44 252.76C1145.44 246.697 1146.83 241.313 1149.6 236.61C1152.44 231.85 1156.35 228.138 1161.33 225.475C1166.32 222.812 1171.93 221.48 1178.16 221.48C1183.38 221.48 1188.11 222.358 1192.36 224.115C1196.61 225.872 1200.18 228.422 1203.07 231.765L1194.23 239.925C1189.98 235.448 1184.85 233.21 1178.84 233.21C1175.05 233.21 1171.67 234.032 1168.73 235.675C1165.78 237.262 1163.49 239.528 1161.84 242.475C1160.2 245.422 1159.38 248.822 1159.38 252.675C1159.38 256.698 1160.17 260.127 1161.76 262.96C1163.4 265.793 1165.58 267.947 1168.3 269.42C1171.02 270.837 1174 271.545 1177.23 271.545C1182.04 271.545 1186.1 270.185 1189.38 267.465V251.315Z" fill="#F5F5F5"/>
<path d="M673.046 251.06L672.93 250.838L672.398 251.117L672.971 251.298L673.046 251.06ZM681.036 256.5L680.837 256.651L680.838 256.653L681.036 256.5ZM677.806 277.835L677.948 278.041L677.949 278.04L677.806 277.835ZM629.356 282H629.106V282.25H629.356V282ZM629.356 222.5V222.25H629.106V222.5H629.356ZM675.086 226.665L674.94 226.868L674.941 226.869L675.086 226.665ZM678.826 245.705L678.614 245.572L678.612 245.576L678.826 245.705ZM643.041 232.87V232.62H642.791V232.87H643.041ZM643.041 246.895H642.791V247.145H643.041V246.895ZM664.461 234.655L664.321 234.862L664.326 234.865L664.461 234.655ZM667.266 269.845L667.132 269.634L667.129 269.636L667.266 269.845ZM643.041 256.925V256.675H642.791V256.925H643.041ZM643.041 271.63H642.791V271.88H643.041V271.63ZM673.046 251.06L672.971 251.298C676.327 252.361 678.945 254.147 680.837 256.651L681.036 256.5L681.236 256.349C679.274 253.753 676.565 251.912 673.122 250.822L673.046 251.06ZM681.036 256.5L680.838 256.653C682.726 259.095 683.676 262.127 683.676 265.765H683.926H684.176C684.176 262.036 683.2 258.891 681.234 256.347L681.036 256.5ZM683.926 265.765H683.676C683.676 270.901 681.672 274.846 677.664 277.63L677.806 277.835L677.949 278.04C682.1 275.158 684.176 271.055 684.176 265.765H683.926ZM677.806 277.835L677.664 277.629C673.701 280.365 667.866 281.75 660.126 281.75V282V282.25C667.913 282.25 673.865 280.859 677.948 278.041L677.806 277.835ZM660.126 282V281.75H629.356V282V282.25H660.126V282ZM629.356 282H629.606V222.5H629.356H629.106V282H629.356ZM629.356 222.5V222.75H658.426V222.5V222.25H629.356V222.5ZM658.426 222.5V222.75C665.653 222.75 671.146 224.134 674.94 226.868L675.086 226.665L675.232 226.462C671.319 223.643 665.706 222.25 658.426 222.25V222.5ZM675.086 226.665L674.941 226.869C678.786 229.599 680.701 233.292 680.701 237.97H680.951H681.201C681.201 233.128 679.206 229.284 675.231 226.461L675.086 226.665ZM680.951 237.97H680.701C680.701 240.817 680.004 243.349 678.614 245.572L678.826 245.705L679.038 245.837C680.482 243.528 681.201 240.903 681.201 237.97H680.951ZM678.826 245.705L678.612 245.576C677.277 247.801 675.386 249.555 672.93 250.838L673.046 251.06L673.162 251.282C675.693 249.958 677.655 248.142 679.041 245.834L678.826 245.705ZM643.041 232.87H642.791V246.895H643.041H643.291V232.87H643.041ZM643.041 246.895V247.145H656.726V246.895V246.645H643.041V246.895ZM656.726 246.895V247.145C660.149 247.145 662.785 246.547 664.601 245.317L664.461 245.11L664.321 244.903C662.624 246.053 660.104 246.645 656.726 246.645V246.895ZM664.461 245.11L664.601 245.317C666.434 244.075 667.346 242.237 667.346 239.84H667.096H666.846C666.846 242.09 666.002 243.765 664.321 244.903L664.461 245.11ZM667.096 239.84H667.346C667.346 237.443 666.434 235.63 664.597 234.445L664.461 234.655L664.326 234.865C666.002 235.947 666.846 237.59 666.846 239.84H667.096ZM664.461 234.655L664.601 234.448C662.785 233.218 660.149 232.62 656.726 232.62V232.87V233.12C660.104 233.12 662.624 233.712 664.321 234.862L664.461 234.655ZM656.726 232.87V232.62H643.041V232.87V233.12H656.726V232.87ZM659.106 271.63V271.88C662.752 271.88 665.53 271.283 667.403 270.054L667.266 269.845L667.129 269.636C665.375 270.787 662.713 271.38 659.106 271.38V271.63ZM667.266 269.845L667.4 270.056C669.353 268.814 670.321 266.886 670.321 264.32H670.071H669.821C669.821 266.74 668.92 268.496 667.132 269.634L667.266 269.845ZM670.071 264.32H670.321C670.321 261.783 669.375 259.852 667.47 258.566C665.582 257.293 662.781 256.675 659.106 256.675V256.925V257.175C662.741 257.175 665.423 257.789 667.19 258.981C668.94 260.161 669.821 261.927 669.821 264.32H670.071ZM659.106 256.925V256.675H643.041V256.925V257.175H659.106V256.925ZM643.041 256.925H642.791V271.63H643.041H643.291V256.925H643.041ZM643.041 271.63V271.88H659.106V271.63V271.38H643.041V271.63ZM696.051 222.5V222.25H695.801V222.5H696.051ZM709.821 222.5H710.071V222.25H709.821V222.5ZM709.821 270.78H709.571V271.03H709.821V270.78ZM739.656 270.78H739.906V270.53H739.656V270.78ZM739.656 282V282.25H739.906V282H739.656ZM696.051 282H695.801V282.25H696.051V282ZM696.051 222.5V222.75H709.821V222.5V222.25H696.051V222.5ZM709.821 222.5H709.571V270.78H709.821H710.071V222.5H709.821ZM709.821 270.78V271.03H739.656V270.78V270.53H709.821V270.78ZM739.656 270.78H739.406V282H739.656H739.906V270.78H739.656ZM739.656 282V281.75H696.051V282V282.25H739.656V282ZM696.051 282H696.301V222.5H696.051H695.801V282H696.051ZM790.19 224.71L790.073 224.931V224.931L790.19 224.71ZM799.71 234.23L799.49 234.349V234.349L799.71 234.23ZM803.11 282V282.25H803.36V282H803.11ZM789.34 282H789.09V282.25H789.34V282ZM789.34 267.72H789.59V267.47H789.34V267.72ZM762.14 267.72V267.47H761.89V267.72H762.14ZM762.14 282V282.25H762.39V282H762.14ZM748.54 282H748.29V282.25H748.54V282ZM789.34 256.67V256.92H789.59V256.67H789.34ZM785.685 237.035L785.504 237.208L785.506 237.21L785.685 237.035ZM765.71 237.035L765.529 236.862L765.529 236.862L765.71 237.035ZM762.14 256.67H761.89V256.92H762.14V256.67ZM775.825 221.48V221.73C781.289 221.73 786.036 222.8 790.073 224.931L790.19 224.71L790.307 224.489C786.185 222.313 781.355 221.23 775.825 221.23V221.48ZM790.19 224.71L790.073 224.931C794.108 227.061 797.246 230.198 799.49 234.349L799.71 234.23L799.93 234.111C797.641 229.876 794.432 226.666 790.307 224.489L790.19 224.71ZM799.71 234.23L799.49 234.349C801.733 238.498 802.86 243.526 802.86 249.445H803.11H803.36C803.36 243.464 802.221 238.349 799.93 234.111L799.71 234.23ZM803.11 249.445H802.86V282H803.11H803.36V249.445H803.11ZM803.11 282V281.75H789.34V282V282.25H803.11V282ZM789.34 282H789.59V267.72H789.34H789.09V282H789.34ZM789.34 267.72V267.47H762.14V267.72V267.97H789.34V267.72ZM762.14 267.72H761.89V282H762.14H762.39V267.72H762.14ZM762.14 282V281.75H748.54V282V282.25H762.14V282ZM748.54 282H748.79V249.445H748.54H748.29V282H748.54ZM748.54 249.445H748.79C748.79 243.526 749.917 238.498 752.16 234.349L751.94 234.23L751.72 234.111C749.429 238.349 748.29 243.464 748.29 249.445H748.54ZM751.94 234.23L752.16 234.349C754.404 230.198 757.542 227.061 761.577 224.931L761.46 224.71L761.343 224.489C757.218 226.666 754.01 229.876 751.72 234.111L751.94 234.23ZM761.46 224.71L761.577 224.931C765.615 222.8 770.361 221.73 775.825 221.73V221.48V221.23C770.296 221.23 765.466 222.313 761.343 224.489L761.46 224.71ZM789.34 256.67H789.59V248.17H789.34H789.09V256.67H789.34ZM789.34 248.17H789.59C789.59 243.202 788.362 239.417 785.864 236.86L785.685 237.035L785.506 237.21C787.881 239.64 789.09 243.278 789.09 248.17H789.34ZM785.685 237.035L785.866 236.862C783.373 234.254 779.988 232.96 775.74 232.96V233.21V233.46C779.879 233.46 783.124 234.716 785.504 237.208L785.685 237.035ZM775.74 233.21V232.96C771.437 232.96 768.023 234.253 765.529 236.862L765.71 237.035L765.891 237.208C768.271 234.717 771.543 233.46 775.74 233.46V233.21ZM765.71 237.035L765.529 236.862C763.089 239.419 761.89 243.203 761.89 248.17H762.14H762.39C762.39 243.277 763.571 239.638 765.891 237.208L765.71 237.035ZM762.14 248.17H761.89V256.67H762.14H762.39V248.17H762.14ZM762.14 256.67V256.92H789.34V256.67V256.42H762.14V256.67ZM830.387 279.11L830.267 279.329L830.27 279.331L830.387 279.11ZM818.827 268.145L818.611 268.272L818.613 268.275L818.827 268.145ZM818.827 236.44L818.612 236.311L818.612 236.312L818.827 236.44ZM830.387 225.475L830.504 225.695L830.505 225.695L830.387 225.475ZM860.901 224.2L860.801 224.429L860.802 224.429L860.901 224.2ZM871.441 232.02L871.611 232.204L871.786 232.043L871.634 231.86L871.441 232.02ZM862.602 240.18L862.413 240.344L862.581 240.539L862.771 240.364L862.602 240.18ZM837.781 235.675L837.902 235.894L837.905 235.892L837.781 235.675ZM830.982 242.39L830.764 242.266L830.762 242.27L830.982 242.39ZM830.982 262.11L830.762 262.23L830.764 262.234L830.982 262.11ZM837.781 268.91L837.658 269.127L837.661 269.129L837.781 268.91ZM862.602 264.235L862.771 264.051L862.58 263.875L862.412 264.072L862.602 264.235ZM871.441 272.395L871.635 272.553L871.784 272.371L871.611 272.211L871.441 272.395ZM860.901 280.3L860.802 280.071V280.071L860.901 280.3ZM846.876 283.02V282.77C840.85 282.77 835.394 281.475 830.503 278.889L830.387 279.11L830.27 279.331C835.239 281.958 840.776 283.27 846.876 283.27V283.02ZM830.387 279.11L830.506 278.891C825.671 276.248 821.85 272.623 819.04 268.015L818.827 268.145L818.613 268.275C821.47 272.96 825.356 276.645 830.267 279.329L830.387 279.11ZM818.827 268.145L819.042 268.018C816.29 263.356 814.911 258.102 814.911 252.25H814.661H814.411C814.411 258.184 815.81 263.527 818.611 268.272L818.827 268.145ZM814.661 252.25H814.911C814.911 246.398 816.29 241.173 819.041 236.568L818.827 236.44L818.612 236.312C815.81 241.001 814.411 246.316 814.411 252.25H814.661ZM818.827 236.44L819.041 236.569C821.851 231.905 825.671 228.281 830.504 225.695L830.387 225.475L830.269 225.255C825.356 227.882 821.469 231.569 818.612 236.311L818.827 236.44ZM830.387 225.475L830.505 225.695C835.396 223.053 840.879 221.73 846.961 221.73V221.48V221.23C840.804 221.23 835.237 222.57 830.268 225.255L830.387 225.475ZM846.961 221.48V221.73C852.089 221.73 856.7 222.631 860.801 224.429L860.901 224.2L861.002 223.971C856.829 222.142 852.148 221.23 846.961 221.23V221.48ZM860.901 224.2L860.802 224.429C864.961 226.228 868.442 228.811 871.249 232.18L871.441 232.02L871.634 231.86C868.774 228.429 865.229 225.799 861.001 223.971L860.901 224.2ZM871.441 232.02L871.272 231.836L862.432 239.996L862.602 240.18L862.771 240.364L871.611 232.204L871.441 232.02ZM862.602 240.18L862.79 240.016C858.721 235.317 853.667 232.96 847.642 232.96V233.21V233.46C853.516 233.46 858.435 235.75 862.413 240.344L862.602 240.18ZM847.642 233.21V232.96C843.92 232.96 840.59 233.791 837.658 235.458L837.781 235.675L837.905 235.892C840.753 234.273 843.997 233.46 847.642 233.46V233.21ZM837.781 235.675L837.661 235.456C834.73 237.065 832.43 239.337 830.764 242.266L830.982 242.39L831.199 242.514C832.819 239.663 835.053 237.458 837.902 235.894L837.781 235.675ZM830.982 242.39L830.762 242.27C829.153 245.201 828.352 248.53 828.352 252.25H828.602H828.852C828.852 248.604 829.637 245.359 831.201 242.51L830.982 242.39ZM828.602 252.25H828.352C828.352 255.97 829.153 259.299 830.762 262.23L830.982 262.11L831.201 261.99C829.637 259.141 828.852 255.896 828.852 252.25H828.602ZM830.982 262.11L830.764 262.234C832.43 265.163 834.729 267.462 837.658 269.127L837.781 268.91L837.905 268.693C835.054 267.072 832.82 264.837 831.199 261.986L830.982 262.11ZM837.781 268.91L837.661 269.129C840.592 270.738 843.921 271.54 847.642 271.54V271.29V271.04C843.995 271.04 840.751 270.255 837.902 268.691L837.781 268.91ZM847.642 271.29V271.54C853.668 271.54 858.723 269.154 862.791 264.398L862.602 264.235L862.412 264.072C858.434 268.723 853.515 271.04 847.642 271.04V271.29ZM862.602 264.235L862.432 264.419L871.272 272.579L871.441 272.395L871.611 272.211L862.771 264.051L862.602 264.235ZM871.441 272.395L871.248 272.237C868.441 275.662 864.96 278.273 860.802 280.071L860.901 280.3L861.001 280.529C865.23 278.701 868.776 276.042 871.635 272.553L871.441 272.395ZM860.901 280.3L860.802 280.071C856.644 281.869 852.003 282.77 846.876 282.77V283.02V283.27C852.063 283.27 856.772 282.358 861.001 280.529L860.901 280.3ZM904.115 258.625L904.309 258.467L904.131 258.248L903.935 258.452L904.115 258.625ZM896.125 266.955L895.945 266.782L895.875 266.854V266.955H896.125ZM896.125 282V282.25H896.375V282H896.125ZM882.44 282H882.19V282.25H882.44V282ZM882.44 222.5V222.25H882.19V222.5H882.44ZM896.125 222.5H896.375V222.25H896.125V222.5ZM896.125 250.295H895.875V250.922L896.307 250.467L896.125 250.295ZM922.475 222.5V222.25H922.368L922.294 222.328L922.475 222.5ZM937.775 222.5L937.958 222.67L938.349 222.25H937.775V222.5ZM913.125 249.02L912.942 248.85L912.796 249.007L912.929 249.175L913.125 249.02ZM939.22 282V282.25H939.737L939.416 281.845L939.22 282ZM923.155 282L922.962 282.158L923.037 282.25H923.155V282ZM904.115 258.625L903.935 258.452L895.945 266.782L896.125 266.955L896.306 267.128L904.296 258.798L904.115 258.625ZM896.125 266.955H895.875V282H896.125H896.375V266.955H896.125ZM896.125 282V281.75H882.44V282V282.25H896.125V282ZM882.44 282H882.69V222.5H882.44H882.19V282H882.44ZM882.44 222.5V222.75H896.125V222.5V222.25H882.44V222.5ZM896.125 222.5H895.875V250.295H896.125H896.375V222.5H896.125ZM896.125 250.295L896.307 250.467L922.657 222.672L922.475 222.5L922.294 222.328L895.944 250.123L896.125 250.295ZM922.475 222.5V222.75H937.775V222.5V222.25H922.475V222.5ZM937.775 222.5L937.592 222.33L912.942 248.85L913.125 249.02L913.309 249.19L937.958 222.67L937.775 222.5ZM913.125 249.02L912.929 249.175L939.024 282.155L939.22 282L939.416 281.845L913.321 248.865L913.125 249.02ZM939.22 282V281.75H923.155V282V282.25H939.22V282ZM923.155 282L923.349 281.842L904.309 258.467L904.115 258.625L903.922 258.783L922.962 282.158L923.155 282ZM989.748 236.355L989.908 236.547L989.911 236.545L989.748 236.355ZM986.093 249.275H985.843V249.525H986.093V249.275ZM1010.57 249.275H1010.82V249.025H1010.57V249.275ZM1010.57 260.325V260.575H1010.82V260.325H1010.57ZM986.093 260.325V260.075H985.843V260.325H986.093ZM986.093 282V282.25H986.343V282H986.093ZM972.323 282H972.073V282.25H972.323V282ZM979.463 227.855L979.297 227.668L979.296 227.669L979.463 227.855ZM1009.21 222.585L1009.15 222.828L1009.16 222.829L1009.21 222.585ZM1017.03 225.645L1017.27 225.736L1017.34 225.541L1017.16 225.432L1017.03 225.645ZM1012.78 236.525L1012.65 236.735L1012.9 236.902L1013.02 236.616L1012.78 236.525ZM1000.54 233.21V232.96C995.751 232.96 992.084 234.015 989.585 236.165L989.748 236.355L989.911 236.545C992.284 234.502 995.814 233.46 1000.54 233.46V233.21ZM989.748 236.355L989.587 236.163C987.078 238.264 985.843 241.433 985.843 245.62H986.093H986.343C986.343 241.533 987.544 238.526 989.908 236.547L989.748 236.355ZM986.093 245.62H985.843V249.275H986.093H986.343V245.62H986.093ZM986.093 249.275V249.525H1010.57V249.275V249.025H986.093V249.275ZM1010.57 249.275H1010.32V260.325H1010.57H1010.82V249.275H1010.57ZM1010.57 260.325V260.075H986.093V260.325V260.575H1010.57V260.325ZM986.093 260.325H985.843V282H986.093H986.343V260.325H986.093ZM986.093 282V281.75H972.323V282V282.25H986.093V282ZM972.323 282H972.573V245.705H972.323H972.073V282H972.323ZM972.323 245.705H972.573C972.573 238.111 974.933 232.235 979.629 228.041L979.463 227.855L979.296 227.669C974.472 231.975 972.073 237.999 972.073 245.705H972.323ZM979.463 227.855L979.628 228.042C984.385 223.845 991.034 221.73 999.608 221.73V221.48V221.23C990.954 221.23 984.173 223.365 979.297 227.668L979.463 227.855ZM999.608 221.48V221.73C1002.99 221.73 1006.17 222.096 1009.15 222.828L1009.21 222.585L1009.27 222.342C1006.25 221.6 1003.03 221.23 999.608 221.23V221.48ZM1009.21 222.585L1009.16 222.829C1012.14 223.504 1014.72 224.515 1016.9 225.858L1017.03 225.645L1017.16 225.432C1014.93 224.055 1012.29 223.026 1009.27 222.341L1009.21 222.585ZM1017.03 225.645L1016.8 225.554L1012.55 236.434L1012.78 236.525L1013.02 236.616L1017.27 225.736L1017.03 225.645ZM1012.78 236.525L1012.92 236.315C1009.47 234.075 1005.34 232.96 1000.54 232.96V233.21V233.46C1005.26 233.46 1009.29 234.555 1012.65 236.735L1012.78 236.525ZM1026.83 222.5V222.25H1026.58V222.5H1026.83ZM1040.6 222.5H1040.85V222.25H1040.6V222.5ZM1040.6 270.78H1040.35V271.03H1040.6V270.78ZM1070.43 270.78H1070.68V270.53H1070.43V270.78ZM1070.43 282V282.25H1070.68V282H1070.43ZM1026.83 282H1026.58V282.25H1026.83V282ZM1026.83 222.5V222.75H1040.6V222.5V222.25H1026.83V222.5ZM1040.6 222.5H1040.35V270.78H1040.6H1040.85V222.5H1040.6ZM1040.6 270.78V271.03H1070.43V270.78V270.53H1040.6V270.78ZM1070.43 270.78H1070.18V282H1070.43H1070.68V270.78H1070.43ZM1070.43 282V281.75H1026.83V282V282.25H1070.43V282ZM1026.83 282H1027.08V222.5H1026.83H1026.58V282H1026.83ZM1120.97 224.71L1120.85 224.931V224.931L1120.97 224.71ZM1130.49 234.23L1130.27 234.349V234.349L1130.49 234.23ZM1133.89 282V282.25H1134.14V282H1133.89ZM1120.12 282H1119.87V282.25H1120.12V282ZM1120.12 267.72H1120.37V267.47H1120.12V267.72ZM1092.92 267.72V267.47H1092.67V267.72H1092.92ZM1092.92 282V282.25H1093.17V282H1092.92ZM1079.32 282H1079.07V282.25H1079.32V282ZM1120.12 256.67V256.92H1120.37V256.67H1120.12ZM1116.46 237.035L1116.28 237.208L1116.28 237.21L1116.46 237.035ZM1096.49 237.035L1096.31 236.862L1096.31 236.862L1096.49 237.035ZM1092.92 256.67H1092.67V256.92H1092.92V256.67ZM1106.6 221.48V221.73C1112.07 221.73 1116.81 222.8 1120.85 224.931L1120.97 224.71L1121.08 224.489C1116.96 222.313 1112.13 221.23 1106.6 221.23V221.48ZM1120.97 224.71L1120.85 224.931C1124.88 227.061 1128.02 230.198 1130.27 234.349L1130.49 234.23L1130.71 234.111C1128.42 229.876 1125.21 226.666 1121.08 224.489L1120.97 224.71ZM1130.49 234.23L1130.27 234.349C1132.51 238.498 1133.64 243.526 1133.64 249.445H1133.89H1134.14C1134.14 243.464 1133 238.349 1130.71 234.111L1130.49 234.23ZM1133.89 249.445H1133.64V282H1133.89H1134.14V249.445H1133.89ZM1133.89 282V281.75H1120.12V282V282.25H1133.89V282ZM1120.12 282H1120.37V267.72H1120.12H1119.87V282H1120.12ZM1120.12 267.72V267.47H1092.92V267.72V267.97H1120.12V267.72ZM1092.92 267.72H1092.67V282H1092.92H1093.17V267.72H1092.92ZM1092.92 282V281.75H1079.32V282V282.25H1092.92V282ZM1079.32 282H1079.57V249.445H1079.32H1079.07V282H1079.32ZM1079.32 249.445H1079.57C1079.57 243.526 1080.69 238.498 1082.94 234.349L1082.72 234.23L1082.5 234.111C1080.21 238.349 1079.07 243.464 1079.07 249.445H1079.32ZM1082.72 234.23L1082.94 234.349C1085.18 230.198 1088.32 227.061 1092.35 224.931L1092.24 224.71L1092.12 224.489C1087.99 226.666 1084.79 229.876 1082.5 234.111L1082.72 234.23ZM1092.24 224.71L1092.35 224.931C1096.39 222.8 1101.14 221.73 1106.6 221.73V221.48V221.23C1101.07 221.23 1096.24 222.313 1092.12 224.489L1092.24 224.71ZM1120.12 256.67H1120.37V248.17H1120.12H1119.87V256.67H1120.12ZM1120.12 248.17H1120.37C1120.37 243.202 1119.14 239.417 1116.64 236.86L1116.46 237.035L1116.28 237.21C1118.66 239.64 1119.87 243.278 1119.87 248.17H1120.12ZM1116.46 237.035L1116.64 236.862C1114.15 234.254 1110.76 232.96 1106.52 232.96V233.21V233.46C1110.66 233.46 1113.9 234.716 1116.28 237.208L1116.46 237.035ZM1106.52 233.21V232.96C1102.21 232.96 1098.8 234.253 1096.31 236.862L1096.49 237.035L1096.67 237.208C1099.05 234.717 1102.32 233.46 1106.52 233.46V233.21ZM1096.49 237.035L1096.31 236.862C1093.87 239.419 1092.67 243.203 1092.67 248.17H1092.92H1093.17C1093.17 243.277 1094.35 239.638 1096.67 237.208L1096.49 237.035ZM1092.92 248.17H1092.67V256.67H1092.92H1093.17V248.17H1092.92ZM1092.92 256.67V256.92H1120.12V256.67V256.42H1092.92V256.67ZM1189.38 251.315V251.065H1189.13V251.315H1189.38ZM1201.96 251.315H1202.21V251.065H1201.96V251.315ZM1201.96 282V282.25H1202.21V282H1201.96ZM1191.59 282H1191.34V282.25H1191.59V282ZM1191.59 278.43H1191.84V277.934L1191.44 278.229L1191.59 278.43ZM1160.48 279.45L1160.37 279.672V279.672L1160.48 279.45ZM1149.52 269.08L1149.3 269.207L1149.3 269.209L1149.52 269.08ZM1149.6 236.61L1149.39 236.482L1149.39 236.483L1149.6 236.61ZM1192.36 224.115L1192.45 223.884V223.884L1192.36 224.115ZM1203.07 231.765L1203.24 231.949L1203.42 231.785L1203.26 231.602L1203.07 231.765ZM1194.23 239.925L1194.05 240.097L1194.22 240.276L1194.4 240.109L1194.23 239.925ZM1168.73 235.675L1168.85 235.895L1168.85 235.893L1168.73 235.675ZM1161.84 242.475L1161.62 242.353V242.353L1161.84 242.475ZM1161.76 262.96L1161.54 263.082L1161.54 263.085L1161.76 262.96ZM1168.3 269.42L1168.18 269.64L1168.19 269.642L1168.3 269.42ZM1189.38 267.465L1189.54 267.658L1189.63 267.583V267.465H1189.38ZM1189.38 251.315V251.565H1201.96V251.315V251.065H1189.38V251.315ZM1201.96 251.315H1201.71V282H1201.96H1202.21V251.315H1201.96ZM1201.96 282V281.75H1191.59V282V282.25H1201.96V282ZM1191.59 282H1191.84V278.43H1191.59H1191.34V282H1191.59ZM1191.59 278.43L1191.44 278.229C1187.36 281.25 1182.09 282.77 1175.61 282.77V283.02V283.27C1182.17 283.27 1187.55 281.73 1191.74 278.631L1191.59 278.43ZM1175.61 283.02V282.77C1170.15 282.77 1165.15 281.588 1160.6 279.228L1160.48 279.45L1160.37 279.672C1165 282.072 1170.08 283.27 1175.61 283.27V283.02ZM1160.48 279.45L1160.6 279.228C1156.05 276.87 1152.43 273.446 1149.73 268.951L1149.52 269.08L1149.3 269.209C1152.05 273.781 1155.74 277.27 1160.37 279.672L1160.48 279.45ZM1149.52 269.08L1149.73 268.953C1147.04 264.408 1145.69 259.013 1145.69 252.76H1145.44H1145.19C1145.19 259.087 1146.56 264.572 1149.3 269.207L1149.52 269.08ZM1145.44 252.76H1145.69C1145.69 246.736 1147.07 241.398 1149.82 236.737L1149.6 236.61L1149.39 236.483C1146.59 241.229 1145.19 246.657 1145.19 252.76H1145.44ZM1149.6 236.61L1149.82 236.738C1152.63 232.018 1156.5 228.338 1161.45 225.696L1161.33 225.475L1161.21 225.254C1156.19 227.939 1152.24 231.682 1149.39 236.482L1149.6 236.61ZM1161.33 225.475L1161.45 225.696C1166.4 223.053 1171.97 221.73 1178.16 221.73V221.48V221.23C1171.89 221.23 1166.24 222.57 1161.21 225.254L1161.33 225.475ZM1178.16 221.48V221.73C1183.35 221.73 1188.05 222.603 1192.26 224.346L1192.36 224.115L1192.45 223.884C1188.17 222.113 1183.4 221.23 1178.16 221.23V221.48ZM1192.36 224.115L1192.26 224.346C1196.48 226.088 1200.02 228.616 1202.88 231.928L1203.07 231.765L1203.26 231.602C1200.34 228.227 1196.74 225.655 1192.45 223.884L1192.36 224.115ZM1203.07 231.765L1202.9 231.581L1194.06 239.741L1194.23 239.925L1194.4 240.109L1203.24 231.949L1203.07 231.765ZM1194.23 239.925L1194.41 239.753C1190.11 235.228 1184.92 232.96 1178.84 232.96V233.21V233.46C1184.78 233.46 1189.84 235.669 1194.05 240.097L1194.23 239.925ZM1178.84 233.21V232.96C1175.01 232.96 1171.59 233.79 1168.61 235.457L1168.73 235.675L1168.85 235.893C1171.75 234.273 1175.08 233.46 1178.84 233.46V233.21ZM1168.73 235.675L1168.61 235.455C1165.62 237.064 1163.29 239.365 1161.62 242.353L1161.84 242.475L1162.06 242.597C1163.68 239.691 1165.94 237.459 1168.85 235.895L1168.73 235.675ZM1161.84 242.475L1161.62 242.353C1159.96 245.342 1159.13 248.785 1159.13 252.675H1159.38H1159.63C1159.63 248.858 1160.44 245.501 1162.06 242.597L1161.84 242.475ZM1159.38 252.675H1159.13C1159.13 256.731 1159.93 260.204 1161.54 263.082L1161.76 262.96L1161.98 262.838C1160.41 260.05 1159.63 256.666 1159.63 252.675H1159.38ZM1161.76 262.96L1161.54 263.085C1163.21 265.956 1165.42 268.143 1168.18 269.64L1168.3 269.42L1168.42 269.2C1165.74 267.75 1163.6 265.631 1161.97 262.835L1161.76 262.96ZM1168.3 269.42L1168.19 269.642C1170.94 271.078 1173.96 271.795 1177.23 271.795V271.545V271.295C1174.04 271.295 1171.1 270.595 1168.42 269.198L1168.3 269.42ZM1177.23 271.545V271.795C1182.09 271.795 1186.2 270.419 1189.54 267.658L1189.38 267.465L1189.22 267.272C1185.99 269.951 1181.99 271.295 1177.23 271.295V271.545ZM1189.38 267.465H1189.63V251.315H1189.38H1189.13V267.465H1189.38Z" fill="#C0C0C0"/>
</g>
<g filter="url(#filter2_dd_34_7)">
<path d="M816.256 289.2H826.624V325.552H849.088V334H816.256V289.2ZM884.641 288.432C888.779 288.432 892.385 289.243 895.457 290.864C898.529 292.485 900.918 294.875 902.625 298.032C904.331 301.189 905.185 305.008 905.185 309.488V334H894.817V323.248H874.337V334H864.097V309.488C864.097 305.008 864.95 301.189 866.657 298.032C868.363 294.875 870.753 292.485 873.825 290.864C876.897 289.243 880.502 288.432 884.641 288.432ZM894.817 314.928V308.528C894.817 304.816 893.899 302.021 892.065 300.144C890.23 298.224 887.734 297.264 884.577 297.264C881.377 297.264 878.859 298.224 877.025 300.144C875.233 302.021 874.337 304.816 874.337 308.528V314.928H894.817ZM957.914 310.704C960.474 311.515 962.48 312.88 963.93 314.8C965.381 316.677 966.106 319.003 966.106 321.776C966.106 325.701 964.57 328.731 961.498 330.864C958.469 332.955 954.032 334 948.186 334H925.018V289.2H946.906C952.368 289.2 956.549 290.245 959.45 292.336C962.394 294.427 963.866 297.264 963.866 300.848C963.866 303.024 963.333 304.965 962.266 306.672C961.242 308.379 959.792 309.723 957.914 310.704ZM935.322 297.008V307.568H945.626C948.186 307.568 950.128 307.12 951.45 306.224C952.773 305.328 953.434 304.005 953.434 302.256C953.434 300.507 952.773 299.205 951.45 298.352C950.128 297.456 948.186 297.008 945.626 297.008H935.322ZM947.418 326.192C950.149 326.192 952.197 325.744 953.562 324.848C954.97 323.952 955.674 322.565 955.674 320.688C955.674 316.976 952.922 315.12 947.418 315.12H935.322V326.192H947.418ZM998.276 334.768C994.734 334.768 991.3 334.299 987.972 333.36C984.686 332.379 982.041 331.12 980.036 329.584L983.556 321.776C985.476 323.184 987.758 324.315 990.404 325.168C993.049 326.021 995.694 326.448 998.34 326.448C1001.28 326.448 1003.46 326.021 1004.87 325.168C1006.28 324.272 1006.98 323.099 1006.98 321.648C1006.98 320.581 1006.55 319.707 1005.7 319.024C1004.89 318.299 1003.82 317.723 1002.5 317.296C1001.22 316.869 999.47 316.4 997.252 315.888C993.838 315.077 991.044 314.267 988.868 313.456C986.692 312.645 984.814 311.344 983.236 309.552C981.7 307.76 980.932 305.371 980.932 302.384C980.932 299.781 981.636 297.435 983.044 295.344C984.452 293.211 986.564 291.525 989.38 290.288C992.238 289.051 995.716 288.432 999.812 288.432C1002.67 288.432 1005.47 288.773 1008.2 289.456C1010.93 290.139 1013.32 291.12 1015.36 292.4L1012.16 300.272C1008.03 297.925 1003.89 296.752 999.748 296.752C996.846 296.752 994.692 297.221 993.284 298.16C991.918 299.099 991.236 300.336 991.236 301.872C991.236 303.408 992.025 304.56 993.604 305.328C995.225 306.053 997.678 306.779 1000.96 307.504C1004.38 308.315 1007.17 309.125 1009.35 309.936C1011.52 310.747 1013.38 312.027 1014.92 313.776C1016.49 315.525 1017.28 317.893 1017.28 320.88C1017.28 323.44 1016.56 325.787 1015.11 327.92C1013.7 330.011 1011.57 331.675 1008.71 332.912C1005.85 334.149 1002.37 334.768 998.276 334.768Z" fill="#D4D4D4"/>
</g>
<defs>
<filter id="filter0_ddi_34_7" x="129" y="50.9999" width="451.168" height="418.785" filterUnits="userSpaceOnUse" color-interpolation-filters="sRGB">
<feFlood flood-opacity="0" result="BackgroundImageFix"/>
<feColorMatrix in="SourceAlpha" type="matrix" values="0 0 0 0 0 0 0 0 0 0 0 0 0 0 0 0 0 0 127 0" result="hardAlpha"/>
<feOffset/>
<feGaussianBlur stdDeviation="10"/>
<feComposite in2="hardAlpha" operator="out"/>
<feColorMatrix type="matrix" values="0 0 0 0 0.898039 0 0 0 0 0.898039 0 0 0 0 0.898039 0 0 0 0.4 0"/>
<feBlend mode="normal" in2="BackgroundImageFix" result="effect1_dropShadow_34_7"/>
<feColorMatrix in="SourceAlpha" type="matrix" values="0 0 0 0 0 0 0 0 0 0 0 0 0 0 0 0 0 0 127 0" result="hardAlpha"/>
<feOffset dy="4"/>
<feGaussianBlur stdDeviation="6"/>
<feComposite in2="hardAlpha" operator="out"/>
<feColorMatrix type="matrix" values="0 0 0 0 0 0 0 0 0 0 0 0 0 0 0 0 0 0 0.35 0"/>
<feBlend mode="normal" in2="effect1_dropShadow_34_7" result="effect2_dropShadow_34_7"/>
<feBlend mode="normal" in="SourceGraphic" in2="effect2_dropShadow_34_7" result="shape"/>
<feColorMatrix in="SourceAlpha" type="matrix" values="0 0 0 0 0 0 0 0 0 0 0 0 0 0 0 0 0 0 127 0" result="hardAlpha"/>
<feOffset/>
<feGaussianBlur stdDeviation="6"/>
<feComposite in2="hardAlpha" operator="arithmetic" k2="-1" k3="1"/>
<feColorMatrix type="matrix" values="0 0 0 0 1 0 0 0 0 1 0 0 0 0 1 0 0 0 0.25 0"/>
<feBlend mode="normal" in2="shape" result="effect3_innerShadow_34_7"/>
</filter>
<filter id="filter1_dd_34_7" x="589.106" y="181.23" width="654.309" height="142.04" filterUnits="userSpaceOnUse" color-interpolation-filters="sRGB">
<feFlood flood-opacity="0" result="BackgroundImageFix"/>
<feColorMatrix in="SourceAlpha" type="matrix" values="0 0 0 0 0 0 0 0 0 0 0 0 0 0 0 0 0 0 127 0" result="hardAlpha"/>
<feOffset/>
<feGaussianBlur stdDeviation="20"/>
<feComposite in2="hardAlpha" operator="out"/>
<feColorMatrix type="matrix" values="0 0 0 0 0.960784 0 0 0 0 0.960784 0 0 0 0 0.960784 0 0 0 0.4 0"/>
<feBlend mode="normal" in2="BackgroundImageFix" result="effect1_dropShadow_34_7"/>
<feColorMatrix in="SourceAlpha" type="matrix" values="0 0 0 0 0 0 0 0 0 0 0 0 0 0 0 0 0 0 127 0" result="hardAlpha"/>
<feOffset dy="4"/>
<feGaussianBlur stdDeviation="2"/>
<feComposite in2="hardAlpha" operator="out"/>
<feColorMatrix type="matrix" values="0 0 0 0 0 0 0 0 0 0 0 0 0 0 0 0 0 0 0.25 0"/>
<feBlend mode="normal" in2="effect1_dropShadow_34_7" result="effect2_dropShadow_34_7"/>
<feBlend mode="normal" in="SourceGraphic" in2="effect2_dropShadow_34_7" result="shape"/>
</filter>
<filter id="filter2_dd_34_7" x="776.256" y="248.432" width="281.028" height="126.336" filterUnits="userSpaceOnUse" color-interpolation-filters="sRGB">
<feFlood flood-opacity="0" result="BackgroundImageFix"/>
<feColorMatrix in="SourceAlpha" type="matrix" values="0 0 0 0 0 0 0 0 0 0 0 0 0 0 0 0 0 0 127 0" result="hardAlpha"/>
<feOffset/>
<feGaussianBlur stdDeviation="20"/>
<feComposite in2="hardAlpha" operator="out"/>
<feColorMatrix type="matrix" values="0 0 0 0 0.831373 0 0 0 0 0.831373 0 0 0 0 0.831373 0 0 0 0.4 0"/>
<feBlend mode="normal" in2="BackgroundImageFix" result="effect1_dropShadow_34_7"/>
<feColorMatrix in="SourceAlpha" type="matrix" values="0 0 0 0 0 0 0 0 0 0 0 0 0 0 0 0 0 0 127 0" result="hardAlpha"/>
<feOffset dy="4"/>
<feGaussianBlur stdDeviation="2"/>
<feComposite in2="hardAlpha" operator="out"/>
<feColorMatrix type="matrix" values="0 0 0 0 0 0 0 0 0 0 0 0 0 0 0 0 0 0 0.25 0"/>
<feBlend mode="normal" in2="effect1_dropShadow_34_7" result="effect2_dropShadow_34_7"/>
<feBlend mode="normal" in="SourceGraphic" in2="effect2_dropShadow_34_7" result="shape"/>
</filter>
</defs>
</svg>
